<mxfile host="drawio-plugin" modified="2024-07-29T12:34:38.981Z" agent="Mozilla/5.0 (Windows NT 10.0; Win64; x64) AppleWebKit/537.36 (KHTML, like Gecko) Chrome/122.0.0.0 Safari/537.36" etag="izIecAa-GU-mbFyogkui" version="22.1.22" type="embed" pages="3">
  <diagram id="C5RBs43oDa-KdzZeNtuy" name="Inschrijven">
    <mxGraphModel dx="676" dy="568" grid="1" gridSize="10" guides="1" tooltips="1" connect="1" arrows="1" fold="1" page="1" pageScale="1" pageWidth="827" pageHeight="1169" math="0" shadow="0">
      <root>
        <mxCell id="WIyWlLk6GJQsqaUBKTNV-0" />
        <mxCell id="WIyWlLk6GJQsqaUBKTNV-1" parent="WIyWlLk6GJQsqaUBKTNV-0" />
        <mxCell id="WIyWlLk6GJQsqaUBKTNV-2" value="" style="rounded=0;html=1;jettySize=auto;orthogonalLoop=1;fontSize=11;endArrow=classic;endFill=1;endSize=8;strokeWidth=1;shadow=0;labelBackgroundColor=none;edgeStyle=orthogonalEdgeStyle;" parent="WIyWlLk6GJQsqaUBKTNV-1" source="WIyWlLk6GJQsqaUBKTNV-3" target="WIyWlLk6GJQsqaUBKTNV-6" edge="1">
          <mxGeometry relative="1" as="geometry" />
        </mxCell>
        <mxCell id="WIyWlLk6GJQsqaUBKTNV-3" value="Inschrijven" style="rounded=1;whiteSpace=wrap;html=1;fontSize=12;glass=0;strokeWidth=1;shadow=0;" parent="WIyWlLk6GJQsqaUBKTNV-1" vertex="1">
          <mxGeometry x="40" y="40" width="160" height="40" as="geometry" />
        </mxCell>
        <mxCell id="WIyWlLk6GJQsqaUBKTNV-4" value="Ja" style="rounded=0;html=1;jettySize=auto;orthogonalLoop=1;fontSize=11;endArrow=classic;endFill=1;endSize=8;strokeWidth=1;shadow=0;labelBackgroundColor=none;edgeStyle=orthogonalEdgeStyle;" parent="WIyWlLk6GJQsqaUBKTNV-1" source="WIyWlLk6GJQsqaUBKTNV-6" target="WIyWlLk6GJQsqaUBKTNV-10" edge="1">
          <mxGeometry x="-0.5" y="10" relative="1" as="geometry">
            <mxPoint as="offset" />
          </mxGeometry>
        </mxCell>
        <mxCell id="WIyWlLk6GJQsqaUBKTNV-5" value="Nee" style="edgeStyle=orthogonalEdgeStyle;rounded=0;html=1;jettySize=auto;orthogonalLoop=1;fontSize=11;endArrow=classic;endFill=1;endSize=8;strokeWidth=1;shadow=0;labelBackgroundColor=none;" parent="WIyWlLk6GJQsqaUBKTNV-1" source="WIyWlLk6GJQsqaUBKTNV-6" target="WIyWlLk6GJQsqaUBKTNV-7" edge="1">
          <mxGeometry y="10" relative="1" as="geometry">
            <mxPoint as="offset" />
          </mxGeometry>
        </mxCell>
        <mxCell id="WIyWlLk6GJQsqaUBKTNV-6" value="Inschrijvingen open?" style="rhombus;whiteSpace=wrap;html=1;shadow=0;fontFamily=Helvetica;fontSize=12;align=center;strokeWidth=1;spacing=6;spacingTop=-4;" parent="WIyWlLk6GJQsqaUBKTNV-1" vertex="1">
          <mxGeometry x="40" y="120" width="160" height="80" as="geometry" />
        </mxCell>
        <mxCell id="WIyWlLk6GJQsqaUBKTNV-7" value="Foei, wachten / Nee, te laat, rekt!" style="rounded=1;whiteSpace=wrap;html=1;fontSize=12;glass=0;strokeWidth=1;shadow=0;" parent="WIyWlLk6GJQsqaUBKTNV-1" vertex="1">
          <mxGeometry x="240" y="140" width="160" height="40" as="geometry" />
        </mxCell>
        <mxCell id="WIyWlLk6GJQsqaUBKTNV-8" value="Nee" style="rounded=0;html=1;jettySize=auto;orthogonalLoop=1;fontSize=11;endArrow=classic;endFill=1;endSize=8;strokeWidth=1;shadow=0;labelBackgroundColor=none;edgeStyle=orthogonalEdgeStyle;" parent="WIyWlLk6GJQsqaUBKTNV-1" source="WIyWlLk6GJQsqaUBKTNV-10" target="WIyWlLk6GJQsqaUBKTNV-11" edge="1">
          <mxGeometry x="-0.6667" y="10" relative="1" as="geometry">
            <mxPoint as="offset" />
          </mxGeometry>
        </mxCell>
        <mxCell id="WIyWlLk6GJQsqaUBKTNV-9" value="Ja" style="edgeStyle=orthogonalEdgeStyle;rounded=0;html=1;jettySize=auto;orthogonalLoop=1;fontSize=11;endArrow=classic;endFill=1;endSize=8;strokeWidth=1;shadow=0;labelBackgroundColor=none;" parent="WIyWlLk6GJQsqaUBKTNV-1" source="WIyWlLk6GJQsqaUBKTNV-10" edge="1">
          <mxGeometry x="-0.9978" y="10" relative="1" as="geometry">
            <mxPoint as="offset" />
            <mxPoint x="240" y="280" as="targetPoint" />
          </mxGeometry>
        </mxCell>
        <mxCell id="WIyWlLk6GJQsqaUBKTNV-10" value="Activiteit vol?" style="rhombus;whiteSpace=wrap;html=1;shadow=0;fontFamily=Helvetica;fontSize=12;align=center;strokeWidth=1;spacing=6;spacingTop=-4;" parent="WIyWlLk6GJQsqaUBKTNV-1" vertex="1">
          <mxGeometry x="40" y="240" width="160" height="80" as="geometry" />
        </mxCell>
        <mxCell id="WIyWlLk6GJQsqaUBKTNV-11" value="Ingeschreven" style="rounded=1;whiteSpace=wrap;html=1;fontSize=12;glass=0;strokeWidth=1;shadow=0;" parent="WIyWlLk6GJQsqaUBKTNV-1" vertex="1">
          <mxGeometry x="40" y="380" width="160" height="40" as="geometry" />
        </mxCell>
        <mxCell id="2OOY4qeaRJCrQvPLbjuy-10" value="In wachtrij" style="rhombus;whiteSpace=wrap;html=1;shadow=0;fontFamily=Helvetica;fontSize=12;align=center;strokeWidth=1;spacing=6;spacingTop=-4;" parent="WIyWlLk6GJQsqaUBKTNV-1" vertex="1">
          <mxGeometry x="240" y="240" width="160" height="80" as="geometry" />
        </mxCell>
        <mxCell id="2OOY4qeaRJCrQvPLbjuy-16" value="Uitschijf deadline&lt;br&gt;verstreken?" style="rhombus;whiteSpace=wrap;html=1;shadow=0;fontFamily=Helvetica;fontSize=12;align=center;strokeWidth=1;spacing=6;spacingTop=-4;" parent="WIyWlLk6GJQsqaUBKTNV-1" vertex="1">
          <mxGeometry x="240" y="360" width="160" height="80" as="geometry" />
        </mxCell>
        <mxCell id="2OOY4qeaRJCrQvPLbjuy-19" value="Nee" style="rounded=0;html=1;jettySize=auto;orthogonalLoop=1;fontSize=11;endArrow=classic;endFill=1;endSize=8;strokeWidth=1;shadow=0;labelBackgroundColor=none;entryX=1;entryY=0.5;entryDx=0;entryDy=0;exitX=0;exitY=0.5;exitDx=0;exitDy=0;" parent="WIyWlLk6GJQsqaUBKTNV-1" source="2OOY4qeaRJCrQvPLbjuy-16" target="WIyWlLk6GJQsqaUBKTNV-11" edge="1">
          <mxGeometry x="-0.3333" y="10" relative="1" as="geometry">
            <mxPoint as="offset" />
            <mxPoint x="220" y="360" as="sourcePoint" />
            <mxPoint x="329.74" y="370" as="targetPoint" />
          </mxGeometry>
        </mxCell>
        <mxCell id="2OOY4qeaRJCrQvPLbjuy-20" value="Gebruiker akkoord?" style="rhombus;whiteSpace=wrap;html=1;shadow=0;fontFamily=Helvetica;fontSize=12;align=center;strokeWidth=1;spacing=6;spacingTop=-4;" parent="WIyWlLk6GJQsqaUBKTNV-1" vertex="1">
          <mxGeometry x="240" y="600" width="160" height="80" as="geometry" />
        </mxCell>
        <mxCell id="2OOY4qeaRJCrQvPLbjuy-21" value="Ja" style="rounded=0;html=1;jettySize=auto;orthogonalLoop=1;fontSize=11;endArrow=classic;endFill=1;endSize=8;strokeWidth=1;shadow=0;labelBackgroundColor=none;edgeStyle=orthogonalEdgeStyle;" parent="WIyWlLk6GJQsqaUBKTNV-1" edge="1">
          <mxGeometry x="-0.5133" y="10" relative="1" as="geometry">
            <mxPoint as="offset" />
            <mxPoint x="319.74" y="440" as="sourcePoint" />
            <mxPoint x="319.74" y="480" as="targetPoint" />
            <Array as="points">
              <mxPoint x="320" y="460" />
              <mxPoint x="320" y="460" />
            </Array>
          </mxGeometry>
        </mxCell>
        <mxCell id="2OOY4qeaRJCrQvPLbjuy-24" value="Uit wachtrij" style="rounded=1;whiteSpace=wrap;html=1;fontSize=12;glass=0;strokeWidth=1;shadow=0;" parent="WIyWlLk6GJQsqaUBKTNV-1" vertex="1">
          <mxGeometry x="440" y="620" width="160" height="40" as="geometry" />
        </mxCell>
        <mxCell id="2OOY4qeaRJCrQvPLbjuy-25" value="Nee" style="rounded=0;html=1;jettySize=auto;orthogonalLoop=1;fontSize=11;endArrow=classic;endFill=1;endSize=8;strokeWidth=1;shadow=0;labelBackgroundColor=none;exitX=1;exitY=0.5;exitDx=0;exitDy=0;entryX=0;entryY=0.5;entryDx=0;entryDy=0;" parent="WIyWlLk6GJQsqaUBKTNV-1" source="2OOY4qeaRJCrQvPLbjuy-20" target="2OOY4qeaRJCrQvPLbjuy-24" edge="1">
          <mxGeometry x="-0.2" y="13" relative="1" as="geometry">
            <mxPoint as="offset" />
            <mxPoint x="249" y="407" as="sourcePoint" />
            <mxPoint x="194" y="389" as="targetPoint" />
          </mxGeometry>
        </mxCell>
        <mxCell id="DYc7Mlx1DkdIBGJdcdNk-0" value="Plek vrij" style="edgeStyle=orthogonalEdgeStyle;rounded=0;html=1;jettySize=auto;orthogonalLoop=1;fontSize=11;endArrow=classic;endFill=1;endSize=8;strokeWidth=1;shadow=0;labelBackgroundColor=none;exitX=0.5;exitY=1;exitDx=0;exitDy=0;entryX=0.5;entryY=0;entryDx=0;entryDy=0;" parent="WIyWlLk6GJQsqaUBKTNV-1" source="2OOY4qeaRJCrQvPLbjuy-10" target="2OOY4qeaRJCrQvPLbjuy-16" edge="1">
          <mxGeometry x="-0.5" y="20" relative="1" as="geometry">
            <mxPoint as="offset" />
            <mxPoint x="250" y="290" as="targetPoint" />
            <mxPoint x="210" y="290" as="sourcePoint" />
          </mxGeometry>
        </mxCell>
        <mxCell id="DYc7Mlx1DkdIBGJdcdNk-1" value="" style="curved=1;endArrow=classic;html=1;rounded=0;exitX=1;exitY=0.5;exitDx=0;exitDy=0;endFill=1;" parent="WIyWlLk6GJQsqaUBKTNV-1" source="2OOY4qeaRJCrQvPLbjuy-10" edge="1">
          <mxGeometry width="50" height="50" relative="1" as="geometry">
            <mxPoint x="400" y="280" as="sourcePoint" />
            <mxPoint x="400" y="280" as="targetPoint" />
            <Array as="points">
              <mxPoint x="420" y="310" />
              <mxPoint x="450" y="280" />
              <mxPoint x="420" y="250" />
            </Array>
          </mxGeometry>
        </mxCell>
        <mxCell id="DYc7Mlx1DkdIBGJdcdNk-2" value="Activiteit vol" style="edgeLabel;html=1;align=center;verticalAlign=middle;resizable=0;points=[];" parent="DYc7Mlx1DkdIBGJdcdNk-1" vertex="1" connectable="0">
          <mxGeometry x="0.0871" y="4" relative="1" as="geometry">
            <mxPoint x="-22" y="-28" as="offset" />
          </mxGeometry>
        </mxCell>
        <mxCell id="DYc7Mlx1DkdIBGJdcdNk-8" style="edgeStyle=orthogonalEdgeStyle;rounded=0;orthogonalLoop=1;jettySize=auto;html=1;exitX=0.5;exitY=1;exitDx=0;exitDy=0;entryX=0.5;entryY=0;entryDx=0;entryDy=0;endArrow=classic;endFill=1;" parent="WIyWlLk6GJQsqaUBKTNV-1" source="DYc7Mlx1DkdIBGJdcdNk-4" target="2OOY4qeaRJCrQvPLbjuy-20" edge="1">
          <mxGeometry relative="1" as="geometry" />
        </mxCell>
        <mxCell id="DYc7Mlx1DkdIBGJdcdNk-9" value="Ja" style="edgeLabel;html=1;align=center;verticalAlign=middle;resizable=0;points=[];" parent="DYc7Mlx1DkdIBGJdcdNk-8" vertex="1" connectable="0">
          <mxGeometry x="-0.1167" relative="1" as="geometry">
            <mxPoint x="10" y="-8" as="offset" />
          </mxGeometry>
        </mxCell>
        <mxCell id="DYc7Mlx1DkdIBGJdcdNk-4" value="Late uitschrijf boete?" style="rhombus;whiteSpace=wrap;html=1;" parent="WIyWlLk6GJQsqaUBKTNV-1" vertex="1">
          <mxGeometry x="240" y="480" width="160" height="80" as="geometry" />
        </mxCell>
        <mxCell id="DYc7Mlx1DkdIBGJdcdNk-5" value="" style="curved=1;endArrow=none;html=1;rounded=0;exitX=0;exitY=0.5;exitDx=0;exitDy=0;endFill=0;" parent="WIyWlLk6GJQsqaUBKTNV-1" source="DYc7Mlx1DkdIBGJdcdNk-4" edge="1">
          <mxGeometry width="50" height="50" relative="1" as="geometry">
            <mxPoint x="260" y="570" as="sourcePoint" />
            <mxPoint x="120" y="440" as="targetPoint" />
            <Array as="points">
              <mxPoint x="190" y="520" />
              <mxPoint x="120" y="490" />
            </Array>
          </mxGeometry>
        </mxCell>
        <mxCell id="DYc7Mlx1DkdIBGJdcdNk-7" value="Nee" style="edgeLabel;html=1;align=center;verticalAlign=middle;resizable=0;points=[];" parent="DYc7Mlx1DkdIBGJdcdNk-5" vertex="1" connectable="0">
          <mxGeometry x="-0.3538" y="-2" relative="1" as="geometry">
            <mxPoint x="46" y="-5" as="offset" />
          </mxGeometry>
        </mxCell>
        <mxCell id="2OOY4qeaRJCrQvPLbjuy-22" value="" style="rounded=0;html=1;jettySize=auto;orthogonalLoop=1;fontSize=11;endArrow=classic;endFill=1;endSize=8;strokeWidth=1;shadow=0;labelBackgroundColor=none;exitX=0;exitY=0.5;exitDx=0;exitDy=0;entryX=0.5;entryY=1;entryDx=0;entryDy=0;edgeStyle=orthogonalEdgeStyle;curved=1;" parent="WIyWlLk6GJQsqaUBKTNV-1" source="2OOY4qeaRJCrQvPLbjuy-20" target="WIyWlLk6GJQsqaUBKTNV-11" edge="1">
          <mxGeometry x="0.0476" y="20" relative="1" as="geometry">
            <mxPoint as="offset" />
            <mxPoint x="240" y="518" as="sourcePoint" />
            <mxPoint x="130" y="450" as="targetPoint" />
            <Array as="points">
              <mxPoint x="120" y="640" />
            </Array>
          </mxGeometry>
        </mxCell>
        <mxCell id="2OOY4qeaRJCrQvPLbjuy-23" value="Ja" style="edgeLabel;html=1;align=center;verticalAlign=middle;resizable=0;points=[];" parent="2OOY4qeaRJCrQvPLbjuy-22" vertex="1" connectable="0">
          <mxGeometry x="0.0482" y="-1" relative="1" as="geometry">
            <mxPoint x="109" y="48" as="offset" />
          </mxGeometry>
        </mxCell>
      </root>
    </mxGraphModel>
  </diagram>
  <diagram id="RzckaE8qbyJoEv8WeWPH" name="Uitschrijven">
    <mxGraphModel dx="676" dy="568" grid="1" gridSize="10" guides="1" tooltips="1" connect="1" arrows="1" fold="1" page="1" pageScale="1" pageWidth="850" pageHeight="1100" math="0" shadow="0">
      <root>
        <mxCell id="0" />
        <mxCell id="1" parent="0" />
        <mxCell id="1PgKdYrrs1OFcJnfFe7D-1" value="Uitschrijven" style="rounded=1;whiteSpace=wrap;html=1;" parent="1" vertex="1">
          <mxGeometry x="240" y="80" width="160" height="40" as="geometry" />
        </mxCell>
        <mxCell id="1PgKdYrrs1OFcJnfFe7D-2" value="&lt;font style=&quot;font-size: 12px;&quot;&gt;Inschrijven &lt;br&gt;mogelijk en activiteit&amp;nbsp;niet&lt;br&gt;&amp;nbsp;gestart?&lt;/font&gt;" style="rhombus;whiteSpace=wrap;html=1;" parent="1" vertex="1">
          <mxGeometry x="240" y="160" width="160" height="80" as="geometry" />
        </mxCell>
        <mxCell id="1PgKdYrrs1OFcJnfFe7D-3" value="" style="endArrow=classic;html=1;rounded=0;exitX=0.5;exitY=1;exitDx=0;exitDy=0;" parent="1" source="1PgKdYrrs1OFcJnfFe7D-1" target="1PgKdYrrs1OFcJnfFe7D-2" edge="1">
          <mxGeometry width="50" height="50" relative="1" as="geometry">
            <mxPoint x="350" y="160" as="sourcePoint" />
            <mxPoint x="400" y="110" as="targetPoint" />
          </mxGeometry>
        </mxCell>
        <mxCell id="1PgKdYrrs1OFcJnfFe7D-4" value="" style="endArrow=classic;html=1;rounded=0;exitX=1;exitY=0.5;exitDx=0;exitDy=0;entryX=0;entryY=0.5;entryDx=0;entryDy=0;" parent="1" source="1PgKdYrrs1OFcJnfFe7D-2" target="W9ZB8h9Lj5WlgIOXQwxY-2" edge="1">
          <mxGeometry width="50" height="50" relative="1" as="geometry">
            <mxPoint x="410" y="220" as="sourcePoint" />
            <mxPoint x="490" y="210" as="targetPoint" />
          </mxGeometry>
        </mxCell>
        <mxCell id="W9ZB8h9Lj5WlgIOXQwxY-3" value="Nee" style="edgeLabel;html=1;align=center;verticalAlign=middle;resizable=0;points=[];" parent="1PgKdYrrs1OFcJnfFe7D-4" vertex="1" connectable="0">
          <mxGeometry x="0.2544" y="-1" relative="1" as="geometry">
            <mxPoint x="-5" y="9" as="offset" />
          </mxGeometry>
        </mxCell>
        <mxCell id="1PgKdYrrs1OFcJnfFe7D-5" value="" style="endArrow=classic;html=1;rounded=0;exitX=0.5;exitY=1;exitDx=0;exitDy=0;entryX=0.5;entryY=0;entryDx=0;entryDy=0;" parent="1" source="1PgKdYrrs1OFcJnfFe7D-2" target="W9ZB8h9Lj5WlgIOXQwxY-4" edge="1">
          <mxGeometry width="50" height="50" relative="1" as="geometry">
            <mxPoint x="350" y="270" as="sourcePoint" />
            <mxPoint x="350" y="330" as="targetPoint" />
          </mxGeometry>
        </mxCell>
        <mxCell id="W9ZB8h9Lj5WlgIOXQwxY-8" value="Ja&amp;nbsp;" style="edgeLabel;html=1;align=center;verticalAlign=middle;resizable=0;points=[];" parent="1PgKdYrrs1OFcJnfFe7D-5" vertex="1" connectable="0">
          <mxGeometry x="-0.0914" relative="1" as="geometry">
            <mxPoint x="20" y="-8" as="offset" />
          </mxGeometry>
        </mxCell>
        <mxCell id="W9ZB8h9Lj5WlgIOXQwxY-2" value="Mag niet, bitch" style="rounded=1;whiteSpace=wrap;html=1;" parent="1" vertex="1">
          <mxGeometry x="440" y="180" width="160" height="40" as="geometry" />
        </mxCell>
        <mxCell id="W9ZB8h9Lj5WlgIOXQwxY-4" value="In wachtrij?" style="rhombus;whiteSpace=wrap;html=1;" parent="1" vertex="1">
          <mxGeometry x="240" y="280" width="160" height="80" as="geometry" />
        </mxCell>
        <mxCell id="W9ZB8h9Lj5WlgIOXQwxY-5" value="Ok, doei" style="rounded=1;whiteSpace=wrap;html=1;" parent="1" vertex="1">
          <mxGeometry x="440" y="420" width="160" height="40" as="geometry" />
        </mxCell>
        <mxCell id="W9ZB8h9Lj5WlgIOXQwxY-6" value="" style="endArrow=classic;html=1;rounded=0;exitX=1;exitY=0.5;exitDx=0;exitDy=0;entryX=0.5;entryY=0;entryDx=0;entryDy=0;edgeStyle=orthogonalEdgeStyle;curved=1;" parent="1" source="W9ZB8h9Lj5WlgIOXQwxY-4" target="W9ZB8h9Lj5WlgIOXQwxY-5" edge="1">
          <mxGeometry width="50" height="50" relative="1" as="geometry">
            <mxPoint x="450" y="360" as="sourcePoint" />
            <mxPoint x="450" y="410" as="targetPoint" />
          </mxGeometry>
        </mxCell>
        <mxCell id="W9ZB8h9Lj5WlgIOXQwxY-7" value="Ja" style="edgeLabel;html=1;align=center;verticalAlign=middle;resizable=0;points=[];" parent="W9ZB8h9Lj5WlgIOXQwxY-6" vertex="1" connectable="0">
          <mxGeometry x="-0.1673" y="-1" relative="1" as="geometry">
            <mxPoint x="-72" y="-11" as="offset" />
          </mxGeometry>
        </mxCell>
        <mxCell id="W9ZB8h9Lj5WlgIOXQwxY-10" value="Voor uitschrijf deadline?" style="rhombus;whiteSpace=wrap;html=1;" parent="1" vertex="1">
          <mxGeometry x="240" y="400" width="160" height="80" as="geometry" />
        </mxCell>
        <mxCell id="W9ZB8h9Lj5WlgIOXQwxY-11" value="" style="endArrow=classic;html=1;rounded=0;entryX=0.5;entryY=0;entryDx=0;entryDy=0;exitX=0.5;exitY=1;exitDx=0;exitDy=0;" parent="1" source="W9ZB8h9Lj5WlgIOXQwxY-4" target="W9ZB8h9Lj5WlgIOXQwxY-10" edge="1">
          <mxGeometry width="50" height="50" relative="1" as="geometry">
            <mxPoint x="280" y="480" as="sourcePoint" />
            <mxPoint x="330" y="430" as="targetPoint" />
          </mxGeometry>
        </mxCell>
        <mxCell id="W9ZB8h9Lj5WlgIOXQwxY-12" value="Nee" style="edgeLabel;html=1;align=center;verticalAlign=middle;resizable=0;points=[];" parent="W9ZB8h9Lj5WlgIOXQwxY-11" vertex="1" connectable="0">
          <mxGeometry x="0.0472" y="1" relative="1" as="geometry">
            <mxPoint x="19" y="-11" as="offset" />
          </mxGeometry>
        </mxCell>
        <mxCell id="W9ZB8h9Lj5WlgIOXQwxY-13" value="" style="endArrow=classic;html=1;rounded=0;exitX=1;exitY=0.5;exitDx=0;exitDy=0;entryX=0;entryY=0.5;entryDx=0;entryDy=0;" parent="1" source="W9ZB8h9Lj5WlgIOXQwxY-10" target="W9ZB8h9Lj5WlgIOXQwxY-5" edge="1">
          <mxGeometry width="50" height="50" relative="1" as="geometry">
            <mxPoint x="420" y="470" as="sourcePoint" />
            <mxPoint x="490" y="470" as="targetPoint" />
          </mxGeometry>
        </mxCell>
        <mxCell id="W9ZB8h9Lj5WlgIOXQwxY-14" value="Ja" style="edgeLabel;html=1;align=center;verticalAlign=middle;resizable=0;points=[];" parent="W9ZB8h9Lj5WlgIOXQwxY-13" vertex="1" connectable="0">
          <mxGeometry x="-0.1673" y="-1" relative="1" as="geometry">
            <mxPoint x="-7" y="-11" as="offset" />
          </mxGeometry>
        </mxCell>
        <mxCell id="W9ZB8h9Lj5WlgIOXQwxY-15" value="Is er een bevestigde&lt;br&gt;vervanger?" style="rhombus;whiteSpace=wrap;html=1;" parent="1" vertex="1">
          <mxGeometry x="40" y="400" width="160" height="80" as="geometry" />
        </mxCell>
        <mxCell id="W9ZB8h9Lj5WlgIOXQwxY-16" value="" style="endArrow=classic;html=1;rounded=0;entryX=1;entryY=0.5;entryDx=0;entryDy=0;exitX=0;exitY=0.5;exitDx=0;exitDy=0;" parent="1" source="W9ZB8h9Lj5WlgIOXQwxY-10" target="W9ZB8h9Lj5WlgIOXQwxY-15" edge="1">
          <mxGeometry width="50" height="50" relative="1" as="geometry">
            <mxPoint x="230" y="457.14" as="sourcePoint" />
            <mxPoint x="230" y="504.14" as="targetPoint" />
          </mxGeometry>
        </mxCell>
        <mxCell id="W9ZB8h9Lj5WlgIOXQwxY-17" value="Nee" style="edgeLabel;html=1;align=center;verticalAlign=middle;resizable=0;points=[];" parent="W9ZB8h9Lj5WlgIOXQwxY-16" vertex="1" connectable="0">
          <mxGeometry x="0.0472" y="1" relative="1" as="geometry">
            <mxPoint x="11" y="-11" as="offset" />
          </mxGeometry>
        </mxCell>
        <mxCell id="W9ZB8h9Lj5WlgIOXQwxY-18" value="Rekt, betalen!" style="rounded=1;whiteSpace=wrap;html=1;" parent="1" vertex="1">
          <mxGeometry x="40" y="300" width="160" height="40" as="geometry" />
        </mxCell>
        <mxCell id="W9ZB8h9Lj5WlgIOXQwxY-19" value="" style="endArrow=classic;html=1;rounded=0;entryX=0.5;entryY=1;entryDx=0;entryDy=0;exitX=0.5;exitY=0;exitDx=0;exitDy=0;" parent="1" source="W9ZB8h9Lj5WlgIOXQwxY-15" target="W9ZB8h9Lj5WlgIOXQwxY-18" edge="1">
          <mxGeometry width="50" height="50" relative="1" as="geometry">
            <mxPoint x="80" y="430" as="sourcePoint" />
            <mxPoint x="119.75999999999999" y="457" as="targetPoint" />
          </mxGeometry>
        </mxCell>
        <mxCell id="W9ZB8h9Lj5WlgIOXQwxY-20" value="Nee" style="edgeLabel;html=1;align=center;verticalAlign=middle;resizable=0;points=[];" parent="W9ZB8h9Lj5WlgIOXQwxY-19" vertex="1" connectable="0">
          <mxGeometry x="0.0472" y="1" relative="1" as="geometry">
            <mxPoint x="-19" y="21" as="offset" />
          </mxGeometry>
        </mxCell>
        <mxCell id="W9ZB8h9Lj5WlgIOXQwxY-21" value="" style="endArrow=classic;html=1;rounded=0;exitX=0.5;exitY=1;exitDx=0;exitDy=0;entryX=0.5;entryY=1;entryDx=0;entryDy=0;edgeStyle=orthogonalEdgeStyle;curved=1;" parent="1" source="W9ZB8h9Lj5WlgIOXQwxY-15" target="W9ZB8h9Lj5WlgIOXQwxY-5" edge="1">
          <mxGeometry width="50" height="50" relative="1" as="geometry">
            <mxPoint x="150" y="620" as="sourcePoint" />
            <mxPoint x="560" y="600" as="targetPoint" />
            <Array as="points">
              <mxPoint x="120" y="560" />
              <mxPoint x="520" y="560" />
            </Array>
          </mxGeometry>
        </mxCell>
        <mxCell id="W9ZB8h9Lj5WlgIOXQwxY-22" value="Ja" style="edgeLabel;html=1;align=center;verticalAlign=middle;resizable=0;points=[];" parent="W9ZB8h9Lj5WlgIOXQwxY-21" vertex="1" connectable="0">
          <mxGeometry x="-0.2044" relative="1" as="geometry">
            <mxPoint x="-153" y="-70" as="offset" />
          </mxGeometry>
        </mxCell>
      </root>
    </mxGraphModel>
  </diagram>
  <diagram id="Ps5t70Xt2fgzbQ_WhmlQ" name="Context">
    <mxGraphModel dx="676" dy="1668" grid="1" gridSize="10" guides="1" tooltips="1" connect="1" arrows="1" fold="1" page="1" pageScale="1" pageWidth="850" pageHeight="1100" math="0" shadow="0">
      <root>
        <mxCell id="0" />
        <mxCell id="1" parent="0" />
        <mxCell id="eferg0gA3-FlSP5L31C9-20" value="" style="rounded=1;whiteSpace=wrap;html=1;" parent="1" vertex="1">
          <mxGeometry x="240" y="-1080" width="240" height="280" as="geometry" />
        </mxCell>
        <mxCell id="hqyg307lbo9z_zFUKqHR-1" value="Activiteit" style="swimlane;fontStyle=0;childLayout=stackLayout;horizontal=1;startSize=30;horizontalStack=0;resizeParent=1;resizeParentMax=0;resizeLast=0;collapsible=1;marginBottom=0;whiteSpace=wrap;html=1;" parent="1" vertex="1">
          <mxGeometry x="40" y="-1080" width="160" height="210" as="geometry" />
        </mxCell>
        <mxCell id="hqyg307lbo9z_zFUKqHR-2" value="Registraties_open" style="text;strokeColor=none;fillColor=none;align=left;verticalAlign=middle;spacingLeft=4;spacingRight=4;overflow=hidden;points=[[0,0.5],[1,0.5]];portConstraint=eastwest;rotatable=0;whiteSpace=wrap;html=1;" parent="hqyg307lbo9z_zFUKqHR-1" vertex="1">
          <mxGeometry y="30" width="160" height="30" as="geometry" />
        </mxCell>
        <mxCell id="hqyg307lbo9z_zFUKqHR-3" value="Registraties_gesloten" style="text;strokeColor=none;fillColor=none;align=left;verticalAlign=middle;spacingLeft=4;spacingRight=4;overflow=hidden;points=[[0,0.5],[1,0.5]];portConstraint=eastwest;rotatable=0;whiteSpace=wrap;html=1;" parent="hqyg307lbo9z_zFUKqHR-1" vertex="1">
          <mxGeometry y="60" width="160" height="30" as="geometry" />
        </mxCell>
        <mxCell id="hqyg307lbo9z_zFUKqHR-4" value="Uitschrijf_deadline" style="text;strokeColor=none;fillColor=none;align=left;verticalAlign=middle;spacingLeft=4;spacingRight=4;overflow=hidden;points=[[0,0.5],[1,0.5]];portConstraint=eastwest;rotatable=0;whiteSpace=wrap;html=1;" parent="hqyg307lbo9z_zFUKqHR-1" vertex="1">
          <mxGeometry y="90" width="160" height="30" as="geometry" />
        </mxCell>
        <mxCell id="hqyg307lbo9z_zFUKqHR-7" value="Activiteit_start" style="text;strokeColor=none;fillColor=none;align=left;verticalAlign=middle;spacingLeft=4;spacingRight=4;overflow=hidden;points=[[0,0.5],[1,0.5]];portConstraint=eastwest;rotatable=0;whiteSpace=wrap;html=1;" parent="hqyg307lbo9z_zFUKqHR-1" vertex="1">
          <mxGeometry y="120" width="160" height="30" as="geometry" />
        </mxCell>
        <mxCell id="hqyg307lbo9z_zFUKqHR-6" value="Activiteit_eind" style="text;strokeColor=none;fillColor=none;align=left;verticalAlign=middle;spacingLeft=4;spacingRight=4;overflow=hidden;points=[[0,0.5],[1,0.5]];portConstraint=eastwest;rotatable=0;whiteSpace=wrap;html=1;" parent="hqyg307lbo9z_zFUKqHR-1" vertex="1">
          <mxGeometry y="150" width="160" height="30" as="geometry" />
        </mxCell>
        <mxCell id="hqyg307lbo9z_zFUKqHR-5" value="Late_uitschrijf_boete" style="text;strokeColor=none;fillColor=none;align=left;verticalAlign=middle;spacingLeft=4;spacingRight=4;overflow=hidden;points=[[0,0.5],[1,0.5]];portConstraint=eastwest;rotatable=0;whiteSpace=wrap;html=1;" parent="hqyg307lbo9z_zFUKqHR-1" vertex="1">
          <mxGeometry y="180" width="160" height="30" as="geometry" />
        </mxCell>
        <mxCell id="eferg0gA3-FlSP5L31C9-1" value="" style="shape=link;html=1;rounded=0;" parent="1" edge="1">
          <mxGeometry width="100" relative="1" as="geometry">
            <mxPoint x="280" y="-1080" as="sourcePoint" />
            <mxPoint x="280" y="-800" as="targetPoint" />
          </mxGeometry>
        </mxCell>
        <mxCell id="eferg0gA3-FlSP5L31C9-2" value="" style="endArrow=none;dashed=1;html=1;dashPattern=1 3;strokeWidth=2;rounded=0;" parent="1" edge="1">
          <mxGeometry width="50" height="50" relative="1" as="geometry">
            <mxPoint x="360" y="-1040" as="sourcePoint" />
            <mxPoint x="280" y="-1040" as="targetPoint" />
          </mxGeometry>
        </mxCell>
        <mxCell id="eferg0gA3-FlSP5L31C9-3" value="Registraties open" style="text;html=1;align=center;verticalAlign=middle;resizable=0;points=[];autosize=1;strokeColor=none;fillColor=none;" parent="1" vertex="1">
          <mxGeometry x="350" y="-1050" width="120" height="30" as="geometry" />
        </mxCell>
        <mxCell id="eferg0gA3-FlSP5L31C9-5" value="" style="endArrow=none;dashed=1;html=1;dashPattern=1 3;strokeWidth=2;rounded=0;" parent="1" edge="1">
          <mxGeometry width="50" height="50" relative="1" as="geometry">
            <mxPoint x="360" y="-840" as="sourcePoint" />
            <mxPoint x="280" y="-840" as="targetPoint" />
          </mxGeometry>
        </mxCell>
        <mxCell id="eferg0gA3-FlSP5L31C9-6" value="Start activiteit" style="text;html=1;align=center;verticalAlign=middle;resizable=0;points=[];autosize=1;strokeColor=none;fillColor=none;" parent="1" vertex="1">
          <mxGeometry x="350" y="-850" width="100" height="30" as="geometry" />
        </mxCell>
        <mxCell id="eferg0gA3-FlSP5L31C9-8" value="" style="endArrow=none;dashed=1;html=1;dashPattern=1 3;strokeWidth=2;rounded=0;" parent="1" edge="1">
          <mxGeometry width="50" height="50" relative="1" as="geometry">
            <mxPoint x="360" y="-920" as="sourcePoint" />
            <mxPoint x="280" y="-920" as="targetPoint" />
          </mxGeometry>
        </mxCell>
        <mxCell id="eferg0gA3-FlSP5L31C9-9" value="Uitschrijf deadline" style="text;html=1;align=center;verticalAlign=middle;resizable=0;points=[];autosize=1;strokeColor=none;fillColor=none;" parent="1" vertex="1">
          <mxGeometry x="350" y="-930" width="120" height="30" as="geometry" />
        </mxCell>
        <mxCell id="eferg0gA3-FlSP5L31C9-10" value="" style="endArrow=none;dashed=1;html=1;dashPattern=1 3;strokeWidth=2;rounded=0;" parent="1" edge="1">
          <mxGeometry width="50" height="50" relative="1" as="geometry">
            <mxPoint x="360" y="-960" as="sourcePoint" />
            <mxPoint x="280" y="-960" as="targetPoint" />
          </mxGeometry>
        </mxCell>
        <mxCell id="eferg0gA3-FlSP5L31C9-11" value="Registraties gesloten" style="text;html=1;align=center;verticalAlign=middle;whiteSpace=wrap;rounded=0;" parent="1" vertex="1">
          <mxGeometry x="360" y="-970" width="120" height="30" as="geometry" />
        </mxCell>
        <mxCell id="eferg0gA3-FlSP5L31C9-14" value="open" style="text;html=1;align=center;verticalAlign=middle;resizable=0;points=[];autosize=1;strokeColor=none;fillColor=none;" parent="1" vertex="1">
          <mxGeometry x="275" y="-1012" width="50" height="30" as="geometry" />
        </mxCell>
        <mxCell id="eferg0gA3-FlSP5L31C9-15" value="gesloten" style="text;html=1;align=center;verticalAlign=middle;whiteSpace=wrap;rounded=0;" parent="1" vertex="1">
          <mxGeometry x="280" y="-950" width="60" height="30" as="geometry" />
        </mxCell>
        <mxCell id="eferg0gA3-FlSP5L31C9-16" value="laat" style="text;html=1;align=center;verticalAlign=middle;whiteSpace=wrap;rounded=0;" parent="1" vertex="1">
          <mxGeometry x="275" y="-890" width="45" height="30" as="geometry" />
        </mxCell>
        <mxCell id="eferg0gA3-FlSP5L31C9-17" value="eind" style="text;html=1;align=center;verticalAlign=middle;whiteSpace=wrap;rounded=0;" parent="1" vertex="1">
          <mxGeometry x="267.5" y="-840" width="60" height="30" as="geometry" />
        </mxCell>
        <mxCell id="eferg0gA3-FlSP5L31C9-18" value="nog gesloten" style="text;html=1;align=center;verticalAlign=middle;whiteSpace=wrap;rounded=0;" parent="1" vertex="1">
          <mxGeometry x="275" y="-1070" width="90" height="30" as="geometry" />
        </mxCell>
        <mxCell id="eferg0gA3-FlSP5L31C9-21" value="" style="rounded=1;whiteSpace=wrap;html=1;" parent="1" vertex="1">
          <mxGeometry x="520" y="-1080" width="240" height="280" as="geometry" />
        </mxCell>
        <mxCell id="eferg0gA3-FlSP5L31C9-22" value="" style="shape=link;html=1;rounded=0;" parent="1" edge="1">
          <mxGeometry width="100" relative="1" as="geometry">
            <mxPoint x="560" y="-1080" as="sourcePoint" />
            <mxPoint x="560" y="-800" as="targetPoint" />
          </mxGeometry>
        </mxCell>
        <mxCell id="eferg0gA3-FlSP5L31C9-23" value="" style="endArrow=none;dashed=1;html=1;dashPattern=1 3;strokeWidth=2;rounded=0;" parent="1" edge="1">
          <mxGeometry width="50" height="50" relative="1" as="geometry">
            <mxPoint x="640" y="-1040" as="sourcePoint" />
            <mxPoint x="560" y="-1040" as="targetPoint" />
          </mxGeometry>
        </mxCell>
        <mxCell id="eferg0gA3-FlSP5L31C9-24" value="Registraties open" style="text;html=1;align=center;verticalAlign=middle;resizable=0;points=[];autosize=1;strokeColor=none;fillColor=none;" parent="1" vertex="1">
          <mxGeometry x="630" y="-1050" width="120" height="30" as="geometry" />
        </mxCell>
        <mxCell id="eferg0gA3-FlSP5L31C9-25" value="" style="endArrow=none;dashed=1;html=1;dashPattern=1 3;strokeWidth=2;rounded=0;" parent="1" edge="1">
          <mxGeometry width="50" height="50" relative="1" as="geometry">
            <mxPoint x="640" y="-840" as="sourcePoint" />
            <mxPoint x="560" y="-840" as="targetPoint" />
          </mxGeometry>
        </mxCell>
        <mxCell id="eferg0gA3-FlSP5L31C9-26" value="Start activiteit" style="text;html=1;align=center;verticalAlign=middle;resizable=0;points=[];autosize=1;strokeColor=none;fillColor=none;" parent="1" vertex="1">
          <mxGeometry x="630" y="-850" width="100" height="30" as="geometry" />
        </mxCell>
        <mxCell id="eferg0gA3-FlSP5L31C9-27" value="" style="endArrow=none;dashed=1;html=1;dashPattern=1 3;strokeWidth=2;rounded=0;" parent="1" edge="1">
          <mxGeometry width="50" height="50" relative="1" as="geometry">
            <mxPoint x="640" y="-920" as="sourcePoint" />
            <mxPoint x="560" y="-920" as="targetPoint" />
          </mxGeometry>
        </mxCell>
        <mxCell id="eferg0gA3-FlSP5L31C9-28" value="Uitschrijf deadline" style="text;html=1;align=center;verticalAlign=middle;resizable=0;points=[];autosize=1;strokeColor=none;fillColor=none;" parent="1" vertex="1">
          <mxGeometry x="630" y="-970" width="120" height="30" as="geometry" />
        </mxCell>
        <mxCell id="eferg0gA3-FlSP5L31C9-29" value="" style="endArrow=none;dashed=1;html=1;dashPattern=1 3;strokeWidth=2;rounded=0;" parent="1" edge="1">
          <mxGeometry width="50" height="50" relative="1" as="geometry">
            <mxPoint x="640" y="-960" as="sourcePoint" />
            <mxPoint x="560" y="-960" as="targetPoint" />
          </mxGeometry>
        </mxCell>
        <mxCell id="eferg0gA3-FlSP5L31C9-30" value="Registraties gesloten" style="text;html=1;align=center;verticalAlign=middle;whiteSpace=wrap;rounded=0;" parent="1" vertex="1">
          <mxGeometry x="640" y="-930" width="120" height="30" as="geometry" />
        </mxCell>
        <mxCell id="eferg0gA3-FlSP5L31C9-31" value="open" style="text;html=1;align=center;verticalAlign=middle;resizable=0;points=[];autosize=1;strokeColor=none;fillColor=none;" parent="1" vertex="1">
          <mxGeometry x="555" y="-1012" width="50" height="30" as="geometry" />
        </mxCell>
        <mxCell id="eferg0gA3-FlSP5L31C9-32" value="laat &amp;amp; open" style="text;html=1;align=center;verticalAlign=middle;whiteSpace=wrap;rounded=0;" parent="1" vertex="1">
          <mxGeometry x="560" y="-950" width="80" height="30" as="geometry" />
        </mxCell>
        <mxCell id="eferg0gA3-FlSP5L31C9-33" value="laat &amp;amp; gesloten" style="text;html=1;align=center;verticalAlign=middle;whiteSpace=wrap;rounded=0;" parent="1" vertex="1">
          <mxGeometry x="555" y="-890" width="105" height="30" as="geometry" />
        </mxCell>
        <mxCell id="eferg0gA3-FlSP5L31C9-34" value="eind" style="text;html=1;align=center;verticalAlign=middle;whiteSpace=wrap;rounded=0;" parent="1" vertex="1">
          <mxGeometry x="547.5" y="-840" width="60" height="30" as="geometry" />
        </mxCell>
        <mxCell id="eferg0gA3-FlSP5L31C9-35" value="nog gesloten" style="text;html=1;align=center;verticalAlign=middle;whiteSpace=wrap;rounded=0;" parent="1" vertex="1">
          <mxGeometry x="555" y="-1070" width="90" height="30" as="geometry" />
        </mxCell>
      </root>
    </mxGraphModel>
  </diagram>
</mxfile>
